<svg xmlns="http://www.w3.org/2000/svg" viewBox="-1 -5 100 100" fill="none" overflow="visible"
     stroke="currentColor" stroke-width="5" stroke-linecap="round" stroke-linejoin="round">
  <!-- Outer silhouette only — internal curves removed for legibility at small sizes -->
  <path d="M53,13
           C57,11 62,10 65,10
           C75,16 86,33 92,46
           C93,53 88,62 84,63
           L66,57
           C60,57 56,60 50,67
           C47,67 41,65 38,65
           L37,74
           C33,79 25,80 20,77
           L5,69
           C8,59 15,56 27,51
           C32,48 35,45 37,39
           C40,33 42,27 50,19
           C52,15 52,14 53,13 Z"/>
</svg>
